<svg width="14" height="14" viewBox="0 0 14 14" fill="none" xmlns="http://www.w3.org/2000/svg">
<path d="M11.5793 0.00402832L13.6876 2.1123L12.0804 3.72021L9.97212 1.61194L11.5793 0.00402832ZM3.85742 9.8342H5.96569L11.0867 4.71321L8.97842 2.60493L3.85742 7.72593V9.8342Z" fill="#0E4D92"/>
<path d="M11.5879 11.9425H3.96857C3.9503 11.9425 3.93133 11.9495 3.91306 11.9495C3.88987 11.9495 3.86667 11.9432 3.84278 11.9425H1.74927V2.10388H6.56105L7.96656 0.698364H1.74927C0.974124 0.698364 0.34375 1.32804 0.34375 2.10388V11.9425C0.34375 12.7183 0.974124 13.348 1.74927 13.348H11.5879C11.9606 13.348 12.3181 13.1999 12.5817 12.9363C12.8453 12.6727 12.9934 12.3153 12.9934 11.9425V5.85098L11.5879 7.2565V11.9425Z" fill="#0E4D92"/>
</svg>
